<svg xmlns="http://www.w3.org/2000/svg" viewBox="0 0 72 72" fill="none">
  <path
    d="M46.57,27.93v26.17c0,.47-.38.85-.85.85h-25.33c-.47,0-.85-.38-.85-.85v-26.17h27.02M50.93,23.58H15.2v30.53c0,2.87,2.33,5.2,5.2,5.2h25.33c2.87,0,5.2-2.33,5.2-5.2v-30.53h0Z"
    fill="currentColor" />
  <path
    d="M53.08,33.73c.47,0,.85.38.85.85v9.52c0,.47-.38.85-.85.85h-2.12v-11.21h2.12M53.08,29.38h-6.48v19.93h6.48c2.87,0,5.2-2.33,5.2-5.2v-9.52c0-2.87-2.33-5.2-5.2-5.2h0Z"
    fill="currentColor" />
  <path
    d="M26.35,49.26c-.18-.48-.26-1.06-.24-1.74s.11-1.5.29-2.45c.17-.96.44-1.98.8-3.08.83-2.54,1.96-4.78,3.38-6.73.25-.33.51-.5.78-.5s.53.06.79.18.49.26.69.42c.5.41.66.74.49,1-1.2,1.93-2.19,3.67-2.96,5.23,1.94-.14,3.65-.75,5.13-1.85,1.61-1.19,2.42-2.63,2.42-4.33,0-1.15-.57-1.89-1.72-2.2-.35-.09-.77-.14-1.25-.14s-.98.05-1.5.15-1.01.23-1.49.4c-.95.35-1.82.81-2.6,1.38-.22.16-.43.24-.62.24s-.39-.05-.62-.15-.42-.22-.59-.37c-.67-.56-.57-1.15.28-1.76,1.24-.87,3.07-1.44,5.49-1.69.45-.04,1.06-.06,1.81-.06s1.53.12,2.32.37,1.42.58,1.9,1c.88.79,1.32,1.88,1.32,3.28,0,1.26-.5,2.51-1.5,3.74-.91,1.14-2.09,2.06-3.54,2.77.69.31,1.21.74,1.56,1.29s.51,1.14.49,1.78c-.02.64-.14,1.22-.38,1.76-.24.53-.55,1.02-.95,1.45-.4.43-.86.81-1.38,1.14-.53.33-1.08.6-1.66.81-1.19.44-2.39.67-3.61.67-1.72,0-2.83-.68-3.33-2.03ZM29.45,43.67c-.65,1.61-.99,3.02-1.03,4.22-.02.58.13,1.03.43,1.34.3.31.72.47,1.25.47s1.08-.12,1.64-.35,1.08-.54,1.55-.94c1.08-.91,1.63-1.93,1.67-3.08.03-1.04-.44-1.75-1.41-2.13-.29-.11-.6-.18-.94-.22-.4.02-.96.12-1.69.31s-1.22.31-1.48.37Z"
    fill="currentColor" stroke="currentColor" stroke-miterlimit="10" stroke-width="0.87" />
  <rect x="22.83" y="11.88" width="4.36" height="8.06" fill="currentColor" />
  <rect x="30.88" y="11.88" width="4.36" height="8.06" fill="currentColor" />
  <rect x="38.94" y="11.88" width="4.36" height="8.06" fill="currentColor" />
</svg>