<?xml version="1.0" encoding="UTF-8" standalone="no"?>
<!DOCTYPE svg PUBLIC "-//W3C//DTD SVG 1.1//EN" "http://www.w3.org/Graphics/SVG/1.1/DTD/svg11.dtd">
<svg width="100%" height="100%" viewBox="0 0 1024 1024" version="1.1" xmlns="http://www.w3.org/2000/svg" xmlns:xlink="http://www.w3.org/1999/xlink" xml:space="preserve" xmlns:serif="http://www.serif.com/" style="fill-rule:evenodd;clip-rule:evenodd;stroke-linecap:square;stroke-miterlimit:1.5;">
    <g transform="matrix(1,0,0,1,-1255,0)">
        <rect id="Artboard2" x="1255" y="0" width="1024" height="1024" style="fill:none;"/>
        <g id="Artboard21" serif:id="Artboard2">
            <g transform="matrix(1.45884,0,0,0.704749,1017.25,94.3088)">
                <rect x="244.096" y="474.825" width="28.119" height="56.891" style="stroke:black;stroke-width:10.91px;"/>
            </g>
            <g transform="matrix(1.45884,0,0,0.704749,1434.07,13.3106)">
                <rect x="244.096" y="474.825" width="28.119" height="56.891" style="stroke:black;stroke-width:10.91px;"/>
            </g>
            <g transform="matrix(1.45884,0,0,1.11921,1267.37,-67.9402)">
                <rect x="244.096" y="474.825" width="28.119" height="56.891" style="stroke:black;stroke-width:9.61px;"/>
            </g>
            <g transform="matrix(1.45884,0,0,1.11921,1245.92,-6.3239)">
                <rect x="244.096" y="474.825" width="28.119" height="56.891" style="stroke:black;stroke-width:9.61px;"/>
            </g>
            <g transform="matrix(1.45884,0,0,0.704749,1136.06,174.753)">
                <rect x="244.096" y="474.825" width="28.119" height="56.891" style="stroke:black;stroke-width:10.91px;"/>
            </g>
            <g transform="matrix(1.45884,0,0,0.704749,1533.1,174.207)">
                <rect x="244.096" y="474.825" width="28.119" height="56.891" style="stroke:black;stroke-width:10.91px;"/>
            </g>
            <g transform="matrix(0.720326,0,0,0.704749,1753.91,6.23977)">
                <rect x="244.096" y="474.825" width="28.119" height="56.891" style="stroke:black;stroke-width:17.54px;"/>
            </g>
            <g transform="matrix(1.55201,0,0,0.727775,1138.13,343.218)">
                <rect x="244.096" y="474.825" width="28.119" height="56.891" style="stroke:black;stroke-width:10.31px;"/>
            </g>
            <g transform="matrix(1.45884,0,0,1.41854,996.742,-204.523)">
                <rect x="244.096" y="474.825" width="28.119" height="56.891" style="stroke:black;stroke-width:8.69px;"/>
            </g>
            <g transform="matrix(1.45884,0,0,1.41854,1393.77,-205.069)">
                <rect x="244.096" y="474.825" width="28.119" height="56.891" style="stroke:black;stroke-width:8.69px;"/>
            </g>
            <g transform="matrix(1.45884,0,0,1.41854,1413.56,-285.521)">
                <rect x="244.096" y="474.825" width="28.119" height="56.891" style="stroke:black;stroke-width:8.69px;"/>
            </g>
            <g transform="matrix(1.45884,0,0,1.41854,1574.12,-325.614)">
                <rect x="244.096" y="474.825" width="28.119" height="56.891" style="stroke:black;stroke-width:8.69px;"/>
            </g>
            <g transform="matrix(1.52872,0,0,1.44156,1728.28,-220.705)">
                <rect x="244.096" y="474.825" width="28.119" height="56.891" style="stroke:black;stroke-width:8.41px;"/>
            </g>
            <g transform="matrix(1.582,0,0,1.44156,1628.48,-323.203)">
                <rect x="244.096" y="474.825" width="28.119" height="56.891" style="stroke:black;stroke-width:8.26px;"/>
            </g>
            <g transform="matrix(1.5986,0,0,0.7508,1690.22,167.941)">
                <rect x="244.096" y="474.825" width="28.119" height="56.891" style="stroke:black;stroke-width:10.01px;"/>
            </g>
            <g transform="matrix(1.5986,0,0,0.7508,1646.68,-16.5683)">
                <rect x="244.096" y="474.825" width="28.119" height="56.891" style="stroke:black;stroke-width:10.01px;"/>
            </g>
            <g transform="matrix(0.806638,0,0,1.53367,1174.28,-126.64)">
                <rect x="244.096" y="474.825" width="28.119" height="56.891" style="stroke:black;stroke-width:10.2px;"/>
            </g>
            <g transform="matrix(0.806638,0,0,0.773825,1151.6,256.42)">
                <rect x="244.096" y="474.825" width="28.119" height="56.891" style="stroke:black;stroke-width:15.81px;"/>
            </g>
            <g transform="matrix(1.45884,0,0,1.41854,1156.57,-244.873)">
                <rect x="244.096" y="474.825" width="28.119" height="56.891" style="stroke:black;stroke-width:8.69px;"/>
            </g>
            <g transform="matrix(1.45884,0,0,1.41854,1553.61,-245.42)">
                <rect x="244.096" y="474.825" width="28.119" height="56.891" style="stroke:black;stroke-width:8.69px;"/>
            </g>
            <g transform="matrix(1.50542,0,0,1.89259,1276.5,-522.787)">
                <rect x="244.096" y="474.825" width="28.119" height="56.891" style="stroke:black;stroke-width:7.31px;"/>
            </g>
            <g transform="matrix(1.50542,0,0,1.55751,1297.55,-425.573)">
                <rect x="244.096" y="474.825" width="28.119" height="56.891" style="stroke:black;stroke-width:8.16px;"/>
            </g>
            <g transform="matrix(1.42544,0,0,0.360104,1045.92,237.975)">
                <rect x="244.096" y="474.825" width="28.119" height="56.891" style="stroke:black;stroke-width:12.02px;"/>
            </g>
            <g transform="matrix(1.42544,0,0,0.360104,1462.73,156.977)">
                <rect x="244.096" y="474.825" width="28.119" height="56.891" style="stroke:black;stroke-width:12.02px;"/>
            </g>
            <g transform="matrix(2.95437,0,0,0.360104,708.917,217.488)">
                <rect x="244.096" y="474.825" width="28.119" height="56.891" style="stroke:black;stroke-width:5.94px;"/>
            </g>
            <g transform="matrix(2.95437,0,0,0.360104,1125.73,136.49)">
                <rect x="244.096" y="474.825" width="28.119" height="56.891" style="stroke:black;stroke-width:5.94px;"/>
            </g>
            <g transform="matrix(5.19048,0,0,0.42918,126.884,460.633)">
                <rect x="244.096" y="474.825" width="28.119" height="56.891" style="stroke:black;stroke-width:3.39px;"/>
            </g>
            <g transform="matrix(5.25377,0,0,0.42918,88.5977,546.888)">
                <rect x="244.096" y="474.825" width="28.119" height="56.891" style="stroke:black;stroke-width:3.35px;"/>
            </g>
            <g transform="matrix(2.95437,0,0,0.360104,671.985,397.927)">
                <rect x="244.096" y="474.825" width="28.119" height="56.891" style="stroke:black;stroke-width:5.94px;"/>
            </g>
            <g transform="matrix(2.95437,0,0,0.360104,1069.02,397.38)">
                <rect x="244.096" y="474.825" width="28.119" height="56.891" style="stroke:black;stroke-width:5.94px;"/>
            </g>
            <g transform="matrix(9.53262e-17,1.5568,-0.360104,2.205e-17,2252.15,165.79)">
                <rect x="244.096" y="474.825" width="28.119" height="56.891" style="stroke:black;stroke-width:11.06px;"/>
            </g>
            <g transform="matrix(9.48182e-17,1.5485,-0.360104,2.205e-17,2272.49,-60.2363)">
                <rect x="244.096" y="474.825" width="28.119" height="56.891" style="stroke:black;stroke-width:11.12px;"/>
            </g>
            <g transform="matrix(1.5568,0,0,0.360104,1698.95,272.312)">
                <rect x="244.096" y="474.825" width="28.119" height="56.891" style="stroke:black;stroke-width:11.06px;"/>
            </g>
            <g transform="matrix(1.5568,0,0,0.360104,1657.23,272.312)">
                <rect x="244.096" y="474.825" width="28.119" height="56.891" style="stroke:black;stroke-width:11.06px;"/>
            </g>
            <g transform="matrix(0.778398,0,0,0.360104,1785.36,376.303)">
                <rect x="244.096" y="474.825" width="28.119" height="56.891" style="stroke:black;stroke-width:20.61px;"/>
            </g>
            <g transform="matrix(0.778398,0,0,0.360104,1973.61,168.53)">
                <rect x="244.096" y="474.825" width="28.119" height="56.891" style="stroke:black;stroke-width:20.61px;"/>
            </g>
            <g transform="matrix(2.25558,0,0,0.383129,1446.67,385.856)">
                <rect x="244.096" y="474.825" width="28.119" height="56.891" style="stroke:black;stroke-width:7.73px;"/>
            </g>
            <g transform="matrix(2.25558,0,0,0.383129,1549.62,135.8)">
                <rect x="244.096" y="474.825" width="28.119" height="56.891" style="stroke:black;stroke-width:7.73px;"/>
            </g>
            <g transform="matrix(1.49074,0,0,0.383129,1259.21,132.054)">
                <rect x="244.096" y="474.825" width="28.119" height="56.891" style="stroke:black;stroke-width:11.49px;"/>
            </g>
            <g transform="matrix(1.42544,0,0,0.360104,1025.41,378.75)">
                <rect x="244.096" y="474.825" width="28.119" height="56.891" style="stroke:black;stroke-width:12.02px;"/>
            </g>
            <g transform="matrix(1.42544,0,0,0.360104,1422.44,378.204)">
                <rect x="244.096" y="474.825" width="28.119" height="56.891" style="stroke:black;stroke-width:12.02px;"/>
            </g>
            <g transform="matrix(1.42544,0,0,0.360104,1125.11,377.44)">
                <rect x="244.096" y="474.825" width="28.119" height="56.891" style="stroke:black;stroke-width:12.02px;"/>
            </g>
            <g transform="matrix(1.42544,0,0,0.360104,1522.15,376.894)">
                <rect x="244.096" y="474.825" width="28.119" height="56.891" style="stroke:black;stroke-width:12.02px;"/>
            </g>
            <g transform="matrix(1.42544,0,0,0.360104,1150.77,559.201)">
                <rect x="244.096" y="474.825" width="28.119" height="56.891" style="stroke:black;stroke-width:12.02px;"/>
            </g>
            <g transform="matrix(1.42544,0,0,0.360104,1001.61,538.714)">
                <rect x="244.096" y="474.825" width="28.119" height="56.891" style="stroke:black;stroke-width:12.02px;"/>
            </g>
            <g transform="matrix(2.26398,0,0,0.360104,796.928,559.201)">
                <rect x="244.096" y="474.825" width="28.119" height="56.891" style="stroke:black;stroke-width:7.71px;"/>
            </g>
            <g transform="matrix(1.42544,0,0,0.360104,1145.15,237.468)">
                <rect x="244.096" y="474.825" width="28.119" height="56.891" style="stroke:black;stroke-width:12.02px;"/>
            </g>
            <g transform="matrix(1.42544,0,0,0.360104,1561.97,156.47)">
                <rect x="244.096" y="474.825" width="28.119" height="56.891" style="stroke:black;stroke-width:12.02px;"/>
            </g>
        </g>
    </g>
</svg>
