<svg xmlns="http://www.w3.org/2000/svg" viewBox="0 0 48 48" width="192" height="192" shape-rendering="crispEdges">
  <rect x="15" y="9" width="1" height="1" fill="rgb(233,26,22)"/>
  <rect x="16" y="9" width="1" height="1" fill="rgb(234,26,23)"/>
  <rect x="17" y="9" width="1" height="1" fill="rgb(234,27,22)"/>
  <rect x="18" y="9" width="1" height="1" fill="rgb(234,26,22)"/>
  <rect x="19" y="9" width="1" height="1" fill="rgb(234,26,23)"/>
  <rect x="20" y="9" width="1" height="1" fill="rgb(234,26,22)"/>
  <rect x="21" y="9" width="1" height="1" fill="rgb(234,26,23)"/>
  <rect x="22" y="9" width="1" height="1" fill="rgb(234,25,25)"/>
  <rect x="23" y="9" width="1" height="1" fill="rgb(234,26,22)"/>
  <rect x="24" y="9" width="1" height="1" fill="rgb(235,28,23)"/>
  <rect x="25" y="9" width="1" height="1" fill="rgb(234,27,22)"/>
  <rect x="26" y="9" width="1" height="1" fill="rgb(234,26,22)"/>
  <rect x="27" y="9" width="1" height="1" fill="rgb(234,26,22)"/>
  <rect x="28" y="9" width="1" height="1" fill="rgb(233,28,23)"/>
  <rect x="29" y="9" width="1" height="1" fill="rgb(234,26,22)"/>
  <rect x="30" y="9" width="1" height="1" fill="rgb(234,28,22)"/>
  <rect x="31" y="9" width="1" height="1" fill="rgb(234,27,22)"/>
  <rect x="32" y="9" width="1" height="1" fill="rgb(234,26,22)"/>
  <rect x="13" y="10" width="1" height="1" fill="rgb(234,28,23)"/>
  <rect x="14" y="10" width="1" height="1" fill="rgb(233,28,23)"/>
  <rect x="15" y="10" width="1" height="1" fill="rgb(234,28,22)"/>
  <rect x="16" y="10" width="1" height="1" fill="rgb(233,26,22)"/>
  <rect x="17" y="10" width="1" height="1" fill="rgb(235,26,22)"/>
  <rect x="18" y="10" width="1" height="1" fill="rgb(234,26,22)"/>
  <rect x="19" y="10" width="1" height="1" fill="rgb(234,26,22)"/>
  <rect x="20" y="10" width="1" height="1" fill="rgb(234,25,21)"/>
  <rect x="21" y="10" width="1" height="1" fill="rgb(234,26,22)"/>
  <rect x="22" y="10" width="1" height="1" fill="rgb(234,26,22)"/>
  <rect x="23" y="10" width="1" height="1" fill="rgb(234,27,22)"/>
  <rect x="24" y="10" width="1" height="1" fill="rgb(233,27,22)"/>
  <rect x="25" y="10" width="1" height="1" fill="rgb(234,27,24)"/>
  <rect x="26" y="10" width="1" height="1" fill="rgb(234,27,24)"/>
  <rect x="27" y="10" width="1" height="1" fill="rgb(234,26,22)"/>
  <rect x="28" y="10" width="1" height="1" fill="rgb(234,25,24)"/>
  <rect x="29" y="10" width="1" height="1" fill="rgb(235,26,23)"/>
  <rect x="30" y="10" width="1" height="1" fill="rgb(234,26,22)"/>
  <rect x="31" y="10" width="1" height="1" fill="rgb(233,25,23)"/>
  <rect x="32" y="10" width="1" height="1" fill="rgb(234,27,24)"/>
  <rect x="33" y="10" width="1" height="1" fill="rgb(234,26,22)"/>
  <rect x="34" y="10" width="1" height="1" fill="rgb(235,27,24)"/>
  <rect x="11" y="11" width="1" height="1" fill="rgb(234,28,24)"/>
  <rect x="12" y="11" width="1" height="1" fill="rgb(234,28,22)"/>
  <rect x="13" y="11" width="1" height="1" fill="rgb(234,28,23)"/>
  <rect x="14" y="11" width="1" height="1" fill="rgb(235,26,23)"/>
  <rect x="15" y="11" width="1" height="1" fill="rgb(234,28,22)"/>
  <rect x="16" y="11" width="1" height="1" fill="rgb(234,26,22)"/>
  <rect x="17" y="11" width="1" height="1" fill="rgb(234,26,23)"/>
  <rect x="18" y="11" width="1" height="1" fill="rgb(235,28,23)"/>
  <rect x="19" y="11" width="1" height="1" fill="rgb(234,28,21)"/>
  <rect x="20" y="11" width="1" height="1" fill="rgb(235,26,22)"/>
  <rect x="21" y="11" width="1" height="1" fill="rgb(234,26,22)"/>
  <rect x="22" y="11" width="1" height="1" fill="rgb(234,27,22)"/>
  <rect x="23" y="11" width="1" height="1" fill="rgb(234,26,22)"/>
  <rect x="24" y="11" width="1" height="1" fill="rgb(234,26,22)"/>
  <rect x="25" y="11" width="1" height="1" fill="rgb(234,26,22)"/>
  <rect x="26" y="11" width="1" height="1" fill="rgb(234,27,22)"/>
  <rect x="27" y="11" width="1" height="1" fill="rgb(234,27,22)"/>
  <rect x="28" y="11" width="1" height="1" fill="rgb(234,27,23)"/>
  <rect x="29" y="11" width="1" height="1" fill="rgb(234,26,23)"/>
  <rect x="30" y="11" width="1" height="1" fill="rgb(235,26,22)"/>
  <rect x="31" y="11" width="1" height="1" fill="rgb(234,26,22)"/>
  <rect x="32" y="11" width="1" height="1" fill="rgb(234,28,23)"/>
  <rect x="33" y="11" width="1" height="1" fill="rgb(234,27,22)"/>
  <rect x="34" y="11" width="1" height="1" fill="rgb(234,27,23)"/>
  <rect x="35" y="11" width="1" height="1" fill="rgb(235,27,23)"/>
  <rect x="36" y="11" width="1" height="1" fill="rgb(235,27,24)"/>
  <rect x="10" y="12" width="1" height="1" fill="rgb(230,29,22)"/>
  <rect x="11" y="12" width="1" height="1" fill="rgb(236,27,23)"/>
  <rect x="12" y="12" width="1" height="1" fill="rgb(234,27,23)"/>
  <rect x="13" y="12" width="1" height="1" fill="rgb(234,27,22)"/>
  <rect x="14" y="12" width="1" height="1" fill="rgb(235,27,22)"/>
  <rect x="15" y="12" width="1" height="1" fill="rgb(232,29,21)"/>
  <rect x="16" y="12" width="1" height="1" fill="rgb(200,20,17)"/>
  <rect x="17" y="12" width="1" height="1" fill="rgb(198,21,20)"/>
  <rect x="18" y="12" width="1" height="1" fill="rgb(198,20,17)"/>
  <rect x="19" y="12" width="1" height="1" fill="rgb(196,22,19)"/>
  <rect x="20" y="12" width="1" height="1" fill="rgb(197,21,19)"/>
  <rect x="21" y="12" width="1" height="1" fill="rgb(198,21,20)"/>
  <rect x="22" y="12" width="1" height="1" fill="rgb(195,23,17)"/>
  <rect x="23" y="12" width="1" height="1" fill="rgb(198,22,21)"/>
  <rect x="24" y="12" width="1" height="1" fill="rgb(198,21,19)"/>
  <rect x="25" y="12" width="1" height="1" fill="rgb(196,22,19)"/>
  <rect x="26" y="12" width="1" height="1" fill="rgb(196,22,17)"/>
  <rect x="27" y="12" width="1" height="1" fill="rgb(196,22,17)"/>
  <rect x="28" y="12" width="1" height="1" fill="rgb(198,21,19)"/>
  <rect x="29" y="12" width="1" height="1" fill="rgb(198,21,19)"/>
  <rect x="30" y="12" width="1" height="1" fill="rgb(195,22,17)"/>
  <rect x="31" y="12" width="1" height="1" fill="rgb(198,22,16)"/>
  <rect x="32" y="12" width="1" height="1" fill="rgb(233,25,22)"/>
  <rect x="33" y="12" width="1" height="1" fill="rgb(234,26,21)"/>
  <rect x="34" y="12" width="1" height="1" fill="rgb(234,26,22)"/>
  <rect x="35" y="12" width="1" height="1" fill="rgb(234,26,22)"/>
  <rect x="36" y="12" width="1" height="1" fill="rgb(232,27,21)"/>
  <rect x="37" y="12" width="1" height="1" fill="rgb(229,23,22)"/>
  <rect x="10" y="13" width="1" height="1" fill="rgb(234,28,23)"/>
  <rect x="11" y="13" width="1" height="1" fill="rgb(236,28,23)"/>
  <rect x="12" y="13" width="1" height="1" fill="rgb(233,26,23)"/>
  <rect x="13" y="13" width="1" height="1" fill="rgb(234,26,22)"/>
  <rect x="14" y="13" width="1" height="1" fill="rgb(234,28,22)"/>
  <rect x="15" y="13" width="1" height="1" fill="rgb(236,29,24)"/>
  <rect x="16" y="13" width="1" height="1" fill="rgb(195,20,18)"/>
  <rect x="17" y="13" width="1" height="1" fill="rgb(201,22,17)"/>
  <rect x="18" y="13" width="1" height="1" fill="rgb(198,22,17)"/>
  <rect x="19" y="13" width="1" height="1" fill="rgb(199,21,17)"/>
  <rect x="20" y="13" width="1" height="1" fill="rgb(199,22,18)"/>
  <rect x="21" y="13" width="1" height="1" fill="rgb(200,21,17)"/>
  <rect x="22" y="13" width="1" height="1" fill="rgb(199,22,18)"/>
  <rect x="23" y="13" width="1" height="1" fill="rgb(201,23,18)"/>
  <rect x="24" y="13" width="1" height="1" fill="rgb(199,22,20)"/>
  <rect x="25" y="13" width="1" height="1" fill="rgb(197,21,17)"/>
  <rect x="26" y="13" width="1" height="1" fill="rgb(199,21,17)"/>
  <rect x="27" y="13" width="1" height="1" fill="rgb(199,22,16)"/>
  <rect x="28" y="13" width="1" height="1" fill="rgb(199,22,19)"/>
  <rect x="29" y="13" width="1" height="1" fill="rgb(198,21,17)"/>
  <rect x="30" y="13" width="1" height="1" fill="rgb(203,23,18)"/>
  <rect x="31" y="13" width="1" height="1" fill="rgb(196,22,18)"/>
  <rect x="32" y="13" width="1" height="1" fill="rgb(236,30,23)"/>
  <rect x="33" y="13" width="1" height="1" fill="rgb(234,27,21)"/>
  <rect x="34" y="13" width="1" height="1" fill="rgb(234,26,23)"/>
  <rect x="35" y="13" width="1" height="1" fill="rgb(234,26,23)"/>
  <rect x="36" y="13" width="1" height="1" fill="rgb(235,29,22)"/>
  <rect x="37" y="13" width="1" height="1" fill="rgb(235,27,24)"/>
  <rect x="8" y="14" width="1" height="1" fill="rgb(161,23,22)" opacity="0.84"/>
  <rect x="9" y="14" width="1" height="1" fill="rgb(234,26,21)"/>
  <rect x="10" y="14" width="1" height="1" fill="rgb(234,27,22)"/>
  <rect x="11" y="14" width="1" height="1" fill="rgb(234,27,23)"/>
  <rect x="12" y="14" width="1" height="1" fill="rgb(235,26,22)"/>
  <rect x="13" y="14" width="1" height="1" fill="rgb(235,27,22)"/>
  <rect x="14" y="14" width="1" height="1" fill="rgb(234,27,22)"/>
  <rect x="15" y="14" width="1" height="1" fill="rgb(196,19,19)"/>
  <rect x="16" y="14" width="1" height="1" fill="rgb(155,16,15)"/>
  <rect x="17" y="14" width="1" height="1" fill="rgb(151,14,15)"/>
  <rect x="18" y="14" width="1" height="1" fill="rgb(155,15,16)"/>
  <rect x="19" y="14" width="1" height="1" fill="rgb(154,14,16)"/>
  <rect x="20" y="14" width="1" height="1" fill="rgb(152,14,15)"/>
  <rect x="21" y="14" width="1" height="1" fill="rgb(153,15,16)"/>
  <rect x="22" y="14" width="1" height="1" fill="rgb(153,14,14)"/>
  <rect x="23" y="14" width="1" height="1" fill="rgb(153,14,15)"/>
  <rect x="24" y="14" width="1" height="1" fill="rgb(152,14,15)"/>
  <rect x="25" y="14" width="1" height="1" fill="rgb(154,15,16)"/>
  <rect x="26" y="14" width="1" height="1" fill="rgb(153,15,15)"/>
  <rect x="27" y="14" width="1" height="1" fill="rgb(153,14,15)"/>
  <rect x="28" y="14" width="1" height="1" fill="rgb(153,14,15)"/>
  <rect x="29" y="14" width="1" height="1" fill="rgb(153,14,16)"/>
  <rect x="30" y="14" width="1" height="1" fill="rgb(151,13,16)"/>
  <rect x="31" y="14" width="1" height="1" fill="rgb(156,15,15)"/>
  <rect x="32" y="14" width="1" height="1" fill="rgb(195,19,18)"/>
  <rect x="33" y="14" width="1" height="1" fill="rgb(234,26,20)"/>
  <rect x="34" y="14" width="1" height="1" fill="rgb(235,26,22)"/>
  <rect x="35" y="14" width="1" height="1" fill="rgb(235,29,22)"/>
  <rect x="36" y="14" width="1" height="1" fill="rgb(235,27,22)"/>
  <rect x="37" y="14" width="1" height="1" fill="rgb(235,27,22)"/>
  <rect x="38" y="14" width="1" height="1" fill="rgb(234,27,22)"/>
  <rect x="39" y="14" width="1" height="1" fill="rgb(171,26,25)" opacity="0.89"/>
  <rect x="8" y="15" width="1" height="1" fill="rgb(159,23,21)" opacity="0.82"/>
  <rect x="9" y="15" width="1" height="1" fill="rgb(235,27,23)"/>
  <rect x="10" y="15" width="1" height="1" fill="rgb(234,26,22)"/>
  <rect x="11" y="15" width="1" height="1" fill="rgb(235,26,22)"/>
  <rect x="12" y="15" width="1" height="1" fill="rgb(235,27,22)"/>
  <rect x="13" y="15" width="1" height="1" fill="rgb(234,27,23)"/>
  <rect x="14" y="15" width="1" height="1" fill="rgb(199,20,17)"/>
  <rect x="15" y="15" width="1" height="1" fill="rgb(153,13,15)"/>
  <rect x="32" y="15" width="1" height="1" fill="rgb(152,14,15)"/>
  <rect x="33" y="15" width="1" height="1" fill="rgb(200,21,16)"/>
  <rect x="34" y="15" width="1" height="1" fill="rgb(233,27,23)"/>
  <rect x="35" y="15" width="1" height="1" fill="rgb(236,27,23)"/>
  <rect x="36" y="15" width="1" height="1" fill="rgb(235,27,23)"/>
  <rect x="37" y="15" width="1" height="1" fill="rgb(234,27,22)"/>
  <rect x="38" y="15" width="1" height="1" fill="rgb(235,26,22)"/>
  <rect x="39" y="15" width="1" height="1" fill="rgb(168,29,27)" opacity="0.87"/>
  <rect x="8" y="16" width="1" height="1" fill="rgb(160,24,22)" opacity="0.83"/>
  <rect x="9" y="16" width="1" height="1" fill="rgb(235,27,23)"/>
  <rect x="10" y="16" width="1" height="1" fill="rgb(235,27,24)"/>
  <rect x="11" y="16" width="1" height="1" fill="rgb(234,27,23)"/>
  <rect x="12" y="16" width="1" height="1" fill="rgb(235,28,23)"/>
  <rect x="13" y="16" width="1" height="1" fill="rgb(234,27,22)"/>
  <rect x="14" y="16" width="1" height="1" fill="rgb(195,21,17)"/>
  <rect x="15" y="16" width="1" height="1" fill="rgb(157,15,15)"/>
  <rect x="17" y="16" width="1" height="1" fill="rgb(227,80,71)"/>
  <rect x="18" y="16" width="1" height="1" fill="rgb(188,19,17)"/>
  <rect x="19" y="16" width="1" height="1" fill="rgb(199,21,17)"/>
  <rect x="20" y="16" width="1" height="1" fill="rgb(198,21,18)"/>
  <rect x="21" y="16" width="1" height="1" fill="rgb(199,21,17)"/>
  <rect x="22" y="16" width="1" height="1" fill="rgb(199,21,17)"/>
  <rect x="23" y="16" width="1" height="1" fill="rgb(199,20,17)"/>
  <rect x="24" y="16" width="1" height="1" fill="rgb(198,22,17)"/>
  <rect x="25" y="16" width="1" height="1" fill="rgb(199,22,17)"/>
  <rect x="26" y="16" width="1" height="1" fill="rgb(197,20,16)"/>
  <rect x="27" y="16" width="1" height="1" fill="rgb(198,21,17)"/>
  <rect x="28" y="16" width="1" height="1" fill="rgb(198,21,17)"/>
  <rect x="29" y="16" width="1" height="1" fill="rgb(198,20,18)"/>
  <rect x="30" y="16" width="1" height="1" fill="rgb(203,28,18)"/>
  <rect x="32" y="16" width="1" height="1" fill="rgb(157,15,18)"/>
  <rect x="33" y="16" width="1" height="1" fill="rgb(197,21,17)"/>
  <rect x="34" y="16" width="1" height="1" fill="rgb(234,27,21)"/>
  <rect x="35" y="16" width="1" height="1" fill="rgb(234,26,23)"/>
  <rect x="36" y="16" width="1" height="1" fill="rgb(235,25,22)"/>
  <rect x="37" y="16" width="1" height="1" fill="rgb(234,28,23)"/>
  <rect x="38" y="16" width="1" height="1" fill="rgb(234,29,21)"/>
  <rect x="39" y="16" width="1" height="1" fill="rgb(172,28,27)" opacity="0.89"/>
  <rect x="8" y="17" width="1" height="1" fill="rgb(161,20,19)" opacity="0.85"/>
  <rect x="9" y="17" width="1" height="1" fill="rgb(234,29,24)"/>
  <rect x="10" y="17" width="1" height="1" fill="rgb(232,30,21)"/>
  <rect x="11" y="17" width="1" height="1" fill="rgb(231,27,22)"/>
  <rect x="12" y="17" width="1" height="1" fill="rgb(232,29,24)"/>
  <rect x="13" y="17" width="1" height="1" fill="rgb(234,30,21)"/>
  <rect x="14" y="17" width="1" height="1" fill="rgb(200,26,20)"/>
  <rect x="15" y="17" width="1" height="1" fill="rgb(152,13,16)"/>
  <rect x="17" y="17" width="1" height="1" fill="rgb(226,65,62)"/>
  <rect x="18" y="17" width="1" height="1" fill="rgb(199,24,17)"/>
  <rect x="19" y="17" width="1" height="1" fill="rgb(198,22,17)"/>
  <rect x="20" y="17" width="1" height="1" fill="rgb(195,22,17)"/>
  <rect x="21" y="17" width="1" height="1" fill="rgb(198,21,16)"/>
  <rect x="22" y="17" width="1" height="1" fill="rgb(199,21,17)"/>
  <rect x="23" y="17" width="1" height="1" fill="rgb(199,20,18)"/>
  <rect x="24" y="17" width="1" height="1" fill="rgb(198,21,16)"/>
  <rect x="25" y="17" width="1" height="1" fill="rgb(198,22,17)"/>
  <rect x="26" y="17" width="1" height="1" fill="rgb(199,21,17)"/>
  <rect x="27" y="17" width="1" height="1" fill="rgb(198,22,17)"/>
  <rect x="28" y="17" width="1" height="1" fill="rgb(198,21,17)"/>
  <rect x="29" y="17" width="1" height="1" fill="rgb(199,21,17)"/>
  <rect x="30" y="17" width="1" height="1" fill="rgb(195,19,15)"/>
  <rect x="32" y="17" width="1" height="1" fill="rgb(152,15,16)"/>
  <rect x="33" y="17" width="1" height="1" fill="rgb(200,27,19)"/>
  <rect x="34" y="17" width="1" height="1" fill="rgb(229,28,22)"/>
  <rect x="35" y="17" width="1" height="1" fill="rgb(233,28,23)"/>
  <rect x="36" y="17" width="1" height="1" fill="rgb(235,27,24)"/>
  <rect x="37" y="17" width="1" height="1" fill="rgb(232,28,23)"/>
  <rect x="38" y="17" width="1" height="1" fill="rgb(235,30,25)"/>
  <rect x="39" y="17" width="1" height="1" fill="rgb(177,25,24)" opacity="0.91"/>
  <rect x="8" y="18" width="1" height="1" fill="rgb(105,12,12)" opacity="0.85"/>
  <rect x="9" y="18" width="1" height="1" fill="rgb(152,14,16)"/>
  <rect x="10" y="18" width="1" height="1" fill="rgb(154,16,16)"/>
  <rect x="11" y="18" width="1" height="1" fill="rgb(154,14,16)"/>
  <rect x="12" y="18" width="1" height="1" fill="rgb(155,14,16)"/>
  <rect x="13" y="18" width="1" height="1" fill="rgb(153,15,16)"/>
  <rect x="14" y="18" width="1" height="1" fill="rgb(156,15,17)"/>
  <rect x="15" y="18" width="1" height="1" fill="rgb(158,13,16)"/>
  <rect x="17" y="18" width="1" height="1" fill="rgb(227,79,70)"/>
  <rect x="18" y="18" width="1" height="1" fill="rgb(188,18,17)"/>
  <rect x="19" y="18" width="1" height="1" fill="rgb(199,21,17)"/>
  <rect x="20" y="18" width="1" height="1" fill="rgb(198,21,19)"/>
  <rect x="21" y="18" width="1" height="1" fill="rgb(199,20,17)"/>
  <rect x="22" y="18" width="1" height="1" fill="rgb(198,21,17)"/>
  <rect x="23" y="18" width="1" height="1" fill="rgb(198,21,18)"/>
  <rect x="24" y="18" width="1" height="1" fill="rgb(198,20,18)"/>
  <rect x="25" y="18" width="1" height="1" fill="rgb(198,21,18)"/>
  <rect x="26" y="18" width="1" height="1" fill="rgb(198,22,18)"/>
  <rect x="27" y="18" width="1" height="1" fill="rgb(199,21,18)"/>
  <rect x="28" y="18" width="1" height="1" fill="rgb(198,20,17)"/>
  <rect x="29" y="18" width="1" height="1" fill="rgb(200,20,17)"/>
  <rect x="30" y="18" width="1" height="1" fill="rgb(202,23,20)"/>
  <rect x="32" y="18" width="1" height="1" fill="rgb(159,15,15)"/>
  <rect x="33" y="18" width="1" height="1" fill="rgb(158,15,17)"/>
  <rect x="34" y="18" width="1" height="1" fill="rgb(153,14,16)"/>
  <rect x="35" y="18" width="1" height="1" fill="rgb(155,15,18)"/>
  <rect x="36" y="18" width="1" height="1" fill="rgb(154,14,16)"/>
  <rect x="37" y="18" width="1" height="1" fill="rgb(155,14,17)"/>
  <rect x="38" y="18" width="1" height="1" fill="rgb(153,15,16)"/>
  <rect x="39" y="18" width="1" height="1" fill="rgb(121,15,17)" opacity="0.90"/>
  <rect x="8" y="19" width="1" height="1" fill="rgb(139,20,17)" opacity="0.87"/>
  <rect x="9" y="19" width="1" height="1" fill="rgb(199,22,21)"/>
  <rect x="10" y="19" width="1" height="1" fill="rgb(198,20,19)"/>
  <rect x="11" y="19" width="1" height="1" fill="rgb(198,20,19)"/>
  <rect x="12" y="19" width="1" height="1" fill="rgb(198,21,19)"/>
  <rect x="13" y="19" width="1" height="1" fill="rgb(199,21,20)"/>
  <rect x="14" y="19" width="1" height="1" fill="rgb(197,20,19)"/>
  <rect x="17" y="19" width="1" height="1" fill="rgb(227,65,63)"/>
  <rect x="18" y="19" width="1" height="1" fill="rgb(201,22,16)"/>
  <rect x="19" y="19" width="1" height="1" fill="rgb(200,20,16)"/>
  <rect x="20" y="19" width="1" height="1" fill="rgb(234,27,23)"/>
  <rect x="21" y="19" width="1" height="1" fill="rgb(235,27,23)"/>
  <rect x="22" y="19" width="1" height="1" fill="rgb(235,28,24)"/>
  <rect x="23" y="19" width="1" height="1" fill="rgb(234,26,23)"/>
  <rect x="24" y="19" width="1" height="1" fill="rgb(235,27,24)"/>
  <rect x="25" y="19" width="1" height="1" fill="rgb(234,28,23)"/>
  <rect x="26" y="19" width="1" height="1" fill="rgb(234,27,23)"/>
  <rect x="27" y="19" width="1" height="1" fill="rgb(234,26,23)"/>
  <rect x="28" y="19" width="1" height="1" fill="rgb(195,20,16)"/>
  <rect x="29" y="19" width="1" height="1" fill="rgb(200,21,17)"/>
  <rect x="30" y="19" width="1" height="1" fill="rgb(195,18,17)"/>
  <rect x="33" y="19" width="1" height="1" fill="rgb(195,20,19)"/>
  <rect x="34" y="19" width="1" height="1" fill="rgb(200,21,19)"/>
  <rect x="35" y="19" width="1" height="1" fill="rgb(198,21,19)"/>
  <rect x="36" y="19" width="1" height="1" fill="rgb(198,20,20)"/>
  <rect x="37" y="19" width="1" height="1" fill="rgb(198,20,18)"/>
  <rect x="38" y="19" width="1" height="1" fill="rgb(198,22,20)"/>
  <rect x="39" y="19" width="1" height="1" fill="rgb(151,16,16)" opacity="0.91"/>
  <rect x="16" y="20" width="1" height="1" fill="rgb(227,75,70)"/>
  <rect x="17" y="20" width="1" height="1" fill="rgb(200,21,17)"/>
  <rect x="18" y="20" width="1" height="1" fill="rgb(232,28,22)"/>
  <rect x="19" y="20" width="1" height="1" fill="rgb(233,26,23)"/>
  <rect x="20" y="20" width="1" height="1" fill="rgb(234,28,23)"/>
  <rect x="21" y="20" width="1" height="1" fill="rgb(235,30,23)"/>
  <rect x="22" y="20" width="1" height="1" fill="rgb(235,28,24)"/>
  <rect x="23" y="20" width="1" height="1" fill="rgb(234,27,23)"/>
  <rect x="24" y="20" width="1" height="1" fill="rgb(234,27,23)"/>
  <rect x="25" y="20" width="1" height="1" fill="rgb(234,27,23)"/>
  <rect x="26" y="20" width="1" height="1" fill="rgb(233,26,22)"/>
  <rect x="27" y="20" width="1" height="1" fill="rgb(235,27,23)"/>
  <rect x="28" y="20" width="1" height="1" fill="rgb(236,29,24)"/>
  <rect x="29" y="20" width="1" height="1" fill="rgb(230,26,23)"/>
  <rect x="30" y="20" width="1" height="1" fill="rgb(202,26,20)"/>
  <rect x="31" y="20" width="1" height="1" fill="rgb(196,22,17)"/>
  <rect x="15" y="21" width="1" height="1" fill="rgb(214,81,74)"/>
  <rect x="16" y="21" width="1" height="1" fill="rgb(193,16,15)"/>
  <rect x="17" y="21" width="1" height="1" fill="rgb(235,29,23)"/>
  <rect x="18" y="21" width="1" height="1" fill="rgb(235,27,23)"/>
  <rect x="19" y="21" width="1" height="1" fill="rgb(235,27,22)"/>
  <rect x="20" y="21" width="1" height="1" fill="rgb(235,30,21)"/>
  <rect x="21" y="21" width="1" height="1" fill="rgb(254,248,249)"/>
  <rect x="22" y="21" width="1" height="1" fill="rgb(253,250,249)"/>
  <rect x="23" y="21" width="1" height="1" fill="rgb(254,246,245)"/>
  <rect x="24" y="21" width="1" height="1" fill="rgb(234,25,23)"/>
  <rect x="25" y="21" width="1" height="1" fill="rgb(254,242,244)"/>
  <rect x="26" y="21" width="1" height="1" fill="rgb(253,249,249)"/>
  <rect x="27" y="21" width="1" height="1" fill="rgb(235,32,26)"/>
  <rect x="28" y="21" width="1" height="1" fill="rgb(235,26,24)"/>
  <rect x="29" y="21" width="1" height="1" fill="rgb(236,29,23)"/>
  <rect x="30" y="21" width="1" height="1" fill="rgb(231,28,23)"/>
  <rect x="31" y="21" width="1" height="1" fill="rgb(199,24,18)"/>
  <rect x="32" y="21" width="1" height="1" fill="rgb(187,31,24)"/>
  <rect x="15" y="22" width="1" height="1" fill="rgb(225,67,65)"/>
  <rect x="16" y="22" width="1" height="1" fill="rgb(199,23,16)"/>
  <rect x="17" y="22" width="1" height="1" fill="rgb(234,27,24)"/>
  <rect x="18" y="22" width="1" height="1" fill="rgb(234,27,23)"/>
  <rect x="19" y="22" width="1" height="1" fill="rgb(235,25,22)"/>
  <rect x="20" y="22" width="1" height="1" fill="rgb(237,19,20)"/>
  <rect x="21" y="22" width="1" height="1" fill="rgb(252,253,254)"/>
  <rect x="22" y="22" width="1" height="1" fill="rgb(254,254,252)"/>
  <rect x="23" y="22" width="1" height="1" fill="rgb(254,254,254)"/>
  <rect x="24" y="22" width="1" height="1" fill="rgb(239,30,24)"/>
  <rect x="25" y="22" width="1" height="1" fill="rgb(254,254,254)"/>
  <rect x="26" y="22" width="1" height="1" fill="rgb(252,254,253)"/>
  <rect x="27" y="22" width="1" height="1" fill="rgb(233,19,19)"/>
  <rect x="28" y="22" width="1" height="1" fill="rgb(235,26,21)"/>
  <rect x="29" y="22" width="1" height="1" fill="rgb(235,27,23)"/>
  <rect x="30" y="22" width="1" height="1" fill="rgb(236,26,22)"/>
  <rect x="31" y="22" width="1" height="1" fill="rgb(198,21,17)"/>
  <rect x="32" y="22" width="1" height="1" fill="rgb(198,20,17)"/>
  <rect x="15" y="23" width="1" height="1" fill="rgb(229,76,67)"/>
  <rect x="16" y="23" width="1" height="1" fill="rgb(195,20,18)"/>
  <rect x="17" y="23" width="1" height="1" fill="rgb(236,28,24)"/>
  <rect x="18" y="23" width="1" height="1" fill="rgb(235,27,23)"/>
  <rect x="19" y="23" width="1" height="1" fill="rgb(200,26,25)"/>
  <rect x="20" y="23" width="1" height="1" fill="rgb(254,253,253)"/>
  <rect x="21" y="23" width="1" height="1" fill="rgb(235,27,22)"/>
  <rect x="22" y="23" width="1" height="1" fill="rgb(254,254,254)"/>
  <rect x="23" y="23" width="1" height="1" fill="rgb(254,254,254)"/>
  <rect x="24" y="23" width="1" height="1" fill="rgb(253,254,254)"/>
  <rect x="25" y="23" width="1" height="1" fill="rgb(254,254,254)"/>
  <rect x="26" y="23" width="1" height="1" fill="rgb(236,26,21)"/>
  <rect x="27" y="23" width="1" height="1" fill="rgb(253,252,251)"/>
  <rect x="28" y="23" width="1" height="1" fill="rgb(194,27,25)"/>
  <rect x="29" y="23" width="1" height="1" fill="rgb(235,27,23)"/>
  <rect x="30" y="23" width="1" height="1" fill="rgb(236,31,23)"/>
  <rect x="31" y="23" width="1" height="1" fill="rgb(195,21,17)"/>
  <rect x="32" y="23" width="1" height="1" fill="rgb(201,23,16)"/>
  <rect x="14" y="24" width="1" height="1" fill="rgb(227,68,67)"/>
  <rect x="15" y="24" width="1" height="1" fill="rgb(200,24,18)"/>
  <rect x="16" y="24" width="1" height="1" fill="rgb(236,27,23)"/>
  <rect x="17" y="24" width="1" height="1" fill="rgb(234,30,23)"/>
  <rect x="18" y="24" width="1" height="1" fill="rgb(254,253,249)"/>
  <rect x="19" y="24" width="1" height="1" fill="rgb(254,254,253)"/>
  <rect x="20" y="24" width="1" height="1" fill="rgb(254,254,254)"/>
  <rect x="21" y="24" width="1" height="1" fill="rgb(254,254,254)"/>
  <rect x="22" y="24" width="1" height="1" fill="rgb(255,255,255)"/>
  <rect x="23" y="24" width="1" height="1" fill="rgb(255,255,255)"/>
  <rect x="24" y="24" width="1" height="1" fill="rgb(254,254,254)"/>
  <rect x="25" y="24" width="1" height="1" fill="rgb(254,254,254)"/>
  <rect x="26" y="24" width="1" height="1" fill="rgb(254,254,254)"/>
  <rect x="27" y="24" width="1" height="1" fill="rgb(254,254,254)"/>
  <rect x="28" y="24" width="1" height="1" fill="rgb(254,254,254)"/>
  <rect x="29" y="24" width="1" height="1" fill="rgb(253,254,254)"/>
  <rect x="30" y="24" width="1" height="1" fill="rgb(232,27,23)"/>
  <rect x="31" y="24" width="1" height="1" fill="rgb(234,28,24)"/>
  <rect x="32" y="24" width="1" height="1" fill="rgb(197,21,18)"/>
  <rect x="33" y="24" width="1" height="1" fill="rgb(199,21,16)"/>
  <rect x="14" y="25" width="1" height="1" fill="rgb(227,76,71)"/>
  <rect x="15" y="25" width="1" height="1" fill="rgb(195,20,19)"/>
  <rect x="16" y="25" width="1" height="1" fill="rgb(237,29,24)"/>
  <rect x="17" y="25" width="1" height="1" fill="rgb(236,28,23)"/>
  <rect x="18" y="25" width="1" height="1" fill="rgb(254,253,251)"/>
  <rect x="19" y="25" width="1" height="1" fill="rgb(253,241,240)"/>
  <rect x="20" y="25" width="1" height="1" fill="rgb(236,21,17)"/>
  <rect x="21" y="25" width="1" height="1" fill="rgb(255,254,255)"/>
  <rect x="22" y="25" width="1" height="1" fill="rgb(255,254,255)"/>
  <rect x="23" y="25" width="1" height="1" fill="rgb(253,254,254)"/>
  <rect x="24" y="25" width="1" height="1" fill="rgb(254,254,254)"/>
  <rect x="25" y="25" width="1" height="1" fill="rgb(254,254,254)"/>
  <rect x="26" y="25" width="1" height="1" fill="rgb(254,254,254)"/>
  <rect x="27" y="25" width="1" height="1" fill="rgb(254,254,254)"/>
  <rect x="28" y="25" width="1" height="1" fill="rgb(254,254,254)"/>
  <rect x="29" y="25" width="1" height="1" fill="rgb(254,252,252)"/>
  <rect x="30" y="25" width="1" height="1" fill="rgb(235,27,24)"/>
  <rect x="31" y="25" width="1" height="1" fill="rgb(235,27,23)"/>
  <rect x="32" y="25" width="1" height="1" fill="rgb(197,20,19)"/>
  <rect x="33" y="25" width="1" height="1" fill="rgb(198,21,18)"/>
  <rect x="14" y="26" width="1" height="1" fill="rgb(227,64,64)"/>
  <rect x="15" y="26" width="1" height="1" fill="rgb(200,21,16)"/>
  <rect x="16" y="26" width="1" height="1" fill="rgb(235,27,23)"/>
  <rect x="17" y="26" width="1" height="1" fill="rgb(236,26,24)"/>
  <rect x="18" y="26" width="1" height="1" fill="rgb(255,254,251)"/>
  <rect x="19" y="26" width="1" height="1" fill="rgb(254,241,239)"/>
  <rect x="20" y="26" width="1" height="1" fill="rgb(215,27,28)"/>
  <rect x="21" y="26" width="1" height="1" fill="rgb(255,254,255)"/>
  <rect x="22" y="26" width="1" height="1" fill="rgb(254,254,254)"/>
  <rect x="23" y="26" width="1" height="1" fill="rgb(254,254,254)"/>
  <rect x="24" y="26" width="1" height="1" fill="rgb(254,254,254)"/>
  <rect x="25" y="26" width="1" height="1" fill="rgb(253,254,254)"/>
  <rect x="26" y="26" width="1" height="1" fill="rgb(254,254,254)"/>
  <rect x="27" y="26" width="1" height="1" fill="rgb(254,254,254)"/>
  <rect x="28" y="26" width="1" height="1" fill="rgb(254,254,254)"/>
  <rect x="29" y="26" width="1" height="1" fill="rgb(254,252,251)"/>
  <rect x="30" y="26" width="1" height="1" fill="rgb(234,27,23)"/>
  <rect x="31" y="26" width="1" height="1" fill="rgb(234,29,22)"/>
  <rect x="32" y="26" width="1" height="1" fill="rgb(197,20,15)"/>
  <rect x="33" y="26" width="1" height="1" fill="rgb(199,22,17)"/>
  <rect x="13" y="27" width="1" height="1" fill="rgb(226,73,67)"/>
  <rect x="14" y="27" width="1" height="1" fill="rgb(199,20,19)"/>
  <rect x="15" y="27" width="1" height="1" fill="rgb(234,27,24)"/>
  <rect x="16" y="27" width="1" height="1" fill="rgb(235,27,23)"/>
  <rect x="17" y="27" width="1" height="1" fill="rgb(236,28,24)"/>
  <rect x="18" y="27" width="1" height="1" fill="rgb(255,255,251)"/>
  <rect x="19" y="27" width="1" height="1" fill="rgb(255,255,255)"/>
  <rect x="20" y="27" width="1" height="1" fill="rgb(254,253,253)"/>
  <rect x="21" y="27" width="1" height="1" fill="rgb(255,255,255)"/>
  <rect x="22" y="27" width="1" height="1" fill="rgb(255,255,255)"/>
  <rect x="23" y="27" width="1" height="1" fill="rgb(253,254,254)"/>
  <rect x="24" y="27" width="1" height="1" fill="rgb(254,254,254)"/>
  <rect x="25" y="27" width="1" height="1" fill="rgb(254,254,254)"/>
  <rect x="26" y="27" width="1" height="1" fill="rgb(254,253,254)"/>
  <rect x="27" y="27" width="1" height="1" fill="rgb(254,254,254)"/>
  <rect x="28" y="27" width="1" height="1" fill="rgb(254,254,254)"/>
  <rect x="29" y="27" width="1" height="1" fill="rgb(254,252,252)"/>
  <rect x="30" y="27" width="1" height="1" fill="rgb(233,27,23)"/>
  <rect x="31" y="27" width="1" height="1" fill="rgb(233,28,23)"/>
  <rect x="32" y="27" width="1" height="1" fill="rgb(234,29,22)"/>
  <rect x="33" y="27" width="1" height="1" fill="rgb(199,21,17)"/>
  <rect x="34" y="27" width="1" height="1" fill="rgb(198,22,16)"/>
  <rect x="13" y="28" width="1" height="1" fill="rgb(226,75,69)"/>
  <rect x="14" y="28" width="1" height="1" fill="rgb(196,21,16)"/>
  <rect x="15" y="28" width="1" height="1" fill="rgb(234,27,23)"/>
  <rect x="16" y="28" width="1" height="1" fill="rgb(235,28,23)"/>
  <rect x="17" y="28" width="1" height="1" fill="rgb(236,27,23)"/>
  <rect x="18" y="28" width="1" height="1" fill="rgb(254,247,247)"/>
  <rect x="19" y="28" width="1" height="1" fill="rgb(254,249,249)"/>
  <rect x="20" y="28" width="1" height="1" fill="rgb(237,34,25)"/>
  <rect x="21" y="28" width="1" height="1" fill="rgb(253,254,254)"/>
  <rect x="22" y="28" width="1" height="1" fill="rgb(253,253,253)"/>
  <rect x="23" y="28" width="1" height="1" fill="rgb(254,254,254)"/>
  <rect x="24" y="28" width="1" height="1" fill="rgb(253,254,254)"/>
  <rect x="25" y="28" width="1" height="1" fill="rgb(254,254,254)"/>
  <rect x="26" y="28" width="1" height="1" fill="rgb(232,26,21)"/>
  <rect x="27" y="28" width="1" height="1" fill="rgb(253,254,254)"/>
  <rect x="28" y="28" width="1" height="1" fill="rgb(253,254,253)"/>
  <rect x="29" y="28" width="1" height="1" fill="rgb(254,252,252)"/>
  <rect x="30" y="28" width="1" height="1" fill="rgb(234,27,23)"/>
  <rect x="31" y="28" width="1" height="1" fill="rgb(235,28,23)"/>
  <rect x="32" y="28" width="1" height="1" fill="rgb(237,27,24)"/>
  <rect x="33" y="28" width="1" height="1" fill="rgb(198,21,16)"/>
  <rect x="34" y="28" width="1" height="1" fill="rgb(199,21,17)"/>
  <rect x="12" y="29" width="1" height="1" fill="rgb(225,75,71)"/>
  <rect x="13" y="29" width="1" height="1" fill="rgb(194,20,18)"/>
  <rect x="14" y="29" width="1" height="1" fill="rgb(236,27,22)"/>
  <rect x="15" y="29" width="1" height="1" fill="rgb(237,28,24)"/>
  <rect x="16" y="29" width="1" height="1" fill="rgb(235,27,23)"/>
  <rect x="17" y="29" width="1" height="1" fill="rgb(236,27,23)"/>
  <rect x="18" y="29" width="1" height="1" fill="rgb(235,29,25)"/>
  <rect x="19" y="29" width="1" height="1" fill="rgb(207,28,25)"/>
  <rect x="20" y="29" width="1" height="1" fill="rgb(252,252,252)"/>
  <rect x="21" y="29" width="1" height="1" fill="rgb(254,253,253)"/>
  <rect x="22" y="29" width="1" height="1" fill="rgb(235,27,23)"/>
  <rect x="23" y="29" width="1" height="1" fill="rgb(253,254,254)"/>
  <rect x="24" y="29" width="1" height="1" fill="rgb(254,254,254)"/>
  <rect x="25" y="29" width="1" height="1" fill="rgb(254,254,254)"/>
  <rect x="26" y="29" width="1" height="1" fill="rgb(234,25,22)"/>
  <rect x="27" y="29" width="1" height="1" fill="rgb(234,21,21)"/>
  <rect x="28" y="29" width="1" height="1" fill="rgb(235,28,23)"/>
  <rect x="29" y="29" width="1" height="1" fill="rgb(235,26,22)"/>
  <rect x="30" y="29" width="1" height="1" fill="rgb(235,27,24)"/>
  <rect x="31" y="29" width="1" height="1" fill="rgb(235,28,23)"/>
  <rect x="32" y="29" width="1" height="1" fill="rgb(235,26,25)"/>
  <rect x="33" y="29" width="1" height="1" fill="rgb(235,27,23)"/>
  <rect x="34" y="29" width="1" height="1" fill="rgb(200,22,17)"/>
  <rect x="35" y="29" width="1" height="1" fill="rgb(196,21,17)"/>
  <rect x="12" y="30" width="1" height="1" fill="rgb(225,69,67)"/>
  <rect x="13" y="30" width="1" height="1" fill="rgb(198,21,19)"/>
  <rect x="14" y="30" width="1" height="1" fill="rgb(234,26,24)"/>
  <rect x="15" y="30" width="1" height="1" fill="rgb(236,27,24)"/>
  <rect x="16" y="30" width="1" height="1" fill="rgb(234,26,23)"/>
  <rect x="17" y="30" width="1" height="1" fill="rgb(236,26,23)"/>
  <rect x="18" y="30" width="1" height="1" fill="rgb(235,27,22)"/>
  <rect x="19" y="30" width="1" height="1" fill="rgb(234,35,27)"/>
  <rect x="20" y="30" width="1" height="1" fill="rgb(227,31,33)"/>
  <rect x="21" y="30" width="1" height="1" fill="rgb(254,254,254)"/>
  <rect x="22" y="30" width="1" height="1" fill="rgb(254,254,254)"/>
  <rect x="23" y="30" width="1" height="1" fill="rgb(253,253,254)"/>
  <rect x="24" y="30" width="1" height="1" fill="rgb(225,38,30)"/>
  <rect x="25" y="30" width="1" height="1" fill="rgb(253,254,253)"/>
  <rect x="26" y="30" width="1" height="1" fill="rgb(254,253,250)"/>
  <rect x="27" y="30" width="1" height="1" fill="rgb(238,33,25)"/>
  <rect x="28" y="30" width="1" height="1" fill="rgb(234,28,24)"/>
  <rect x="29" y="30" width="1" height="1" fill="rgb(235,27,23)"/>
  <rect x="30" y="30" width="1" height="1" fill="rgb(235,27,23)"/>
  <rect x="31" y="30" width="1" height="1" fill="rgb(234,27,23)"/>
  <rect x="32" y="30" width="1" height="1" fill="rgb(235,27,23)"/>
  <rect x="33" y="30" width="1" height="1" fill="rgb(234,26,23)"/>
  <rect x="34" y="30" width="1" height="1" fill="rgb(197,21,17)"/>
  <rect x="35" y="30" width="1" height="1" fill="rgb(198,21,17)"/>
  <rect x="12" y="31" width="1" height="1" fill="rgb(230,77,71)"/>
  <rect x="13" y="31" width="1" height="1" fill="rgb(196,21,17)"/>
  <rect x="14" y="31" width="1" height="1" fill="rgb(235,29,23)"/>
  <rect x="15" y="31" width="1" height="1" fill="rgb(235,27,22)"/>
  <rect x="16" y="31" width="1" height="1" fill="rgb(236,27,23)"/>
  <rect x="17" y="31" width="1" height="1" fill="rgb(236,28,23)"/>
  <rect x="18" y="31" width="1" height="1" fill="rgb(235,27,23)"/>
  <rect x="19" y="31" width="1" height="1" fill="rgb(237,28,24)"/>
  <rect x="20" y="31" width="1" height="1" fill="rgb(234,30,24)"/>
  <rect x="21" y="31" width="1" height="1" fill="rgb(254,254,254)"/>
  <rect x="22" y="31" width="1" height="1" fill="rgb(254,253,254)"/>
  <rect x="23" y="31" width="1" height="1" fill="rgb(254,254,254)"/>
  <rect x="24" y="31" width="1" height="1" fill="rgb(234,26,22)"/>
  <rect x="25" y="31" width="1" height="1" fill="rgb(254,254,254)"/>
  <rect x="26" y="31" width="1" height="1" fill="rgb(254,254,254)"/>
  <rect x="27" y="31" width="1" height="1" fill="rgb(235,28,22)"/>
  <rect x="28" y="31" width="1" height="1" fill="rgb(235,27,24)"/>
  <rect x="29" y="31" width="1" height="1" fill="rgb(235,27,24)"/>
  <rect x="30" y="31" width="1" height="1" fill="rgb(236,27,23)"/>
  <rect x="31" y="31" width="1" height="1" fill="rgb(234,27,22)"/>
  <rect x="32" y="31" width="1" height="1" fill="rgb(235,28,22)"/>
  <rect x="33" y="31" width="1" height="1" fill="rgb(234,28,23)"/>
  <rect x="34" y="31" width="1" height="1" fill="rgb(197,21,20)"/>
  <rect x="35" y="31" width="1" height="1" fill="rgb(197,21,17)"/>
  <rect x="11" y="32" width="1" height="1" fill="rgb(229,72,69)"/>
  <rect x="12" y="32" width="1" height="1" fill="rgb(195,21,18)"/>
  <rect x="13" y="32" width="1" height="1" fill="rgb(237,30,23)"/>
  <rect x="14" y="32" width="1" height="1" fill="rgb(233,28,23)"/>
  <rect x="15" y="32" width="1" height="1" fill="rgb(236,28,24)"/>
  <rect x="16" y="32" width="1" height="1" fill="rgb(234,27,23)"/>
  <rect x="17" y="32" width="1" height="1" fill="rgb(235,28,23)"/>
  <rect x="18" y="32" width="1" height="1" fill="rgb(237,28,25)"/>
  <rect x="19" y="32" width="1" height="1" fill="rgb(236,28,22)"/>
  <rect x="20" y="32" width="1" height="1" fill="rgb(236,27,24)"/>
  <rect x="21" y="32" width="1" height="1" fill="rgb(234,27,23)"/>
  <rect x="22" y="32" width="1" height="1" fill="rgb(234,28,23)"/>
  <rect x="23" y="32" width="1" height="1" fill="rgb(235,28,23)"/>
  <rect x="24" y="32" width="1" height="1" fill="rgb(234,27,23)"/>
  <rect x="25" y="32" width="1" height="1" fill="rgb(235,26,22)"/>
  <rect x="26" y="32" width="1" height="1" fill="rgb(234,28,22)"/>
  <rect x="27" y="32" width="1" height="1" fill="rgb(234,28,24)"/>
  <rect x="28" y="32" width="1" height="1" fill="rgb(234,27,23)"/>
  <rect x="29" y="32" width="1" height="1" fill="rgb(233,26,22)"/>
  <rect x="30" y="32" width="1" height="1" fill="rgb(233,26,22)"/>
  <rect x="31" y="32" width="1" height="1" fill="rgb(235,28,24)"/>
  <rect x="32" y="32" width="1" height="1" fill="rgb(235,28,23)"/>
  <rect x="33" y="32" width="1" height="1" fill="rgb(197,20,17)"/>
  <rect x="34" y="32" width="1" height="1" fill="rgb(199,22,17)"/>
  <rect x="35" y="32" width="1" height="1" fill="rgb(198,21,17)"/>
  <rect x="36" y="32" width="1" height="1" fill="rgb(197,20,17)"/>
  <rect x="11" y="33" width="1" height="1" fill="rgb(228,71,70)"/>
  <rect x="12" y="33" width="1" height="1" fill="rgb(199,21,20)"/>
  <rect x="13" y="33" width="1" height="1" fill="rgb(195,20,16)"/>
  <rect x="14" y="33" width="1" height="1" fill="rgb(236,29,23)"/>
  <rect x="15" y="33" width="1" height="1" fill="rgb(235,27,23)"/>
  <rect x="16" y="33" width="1" height="1" fill="rgb(234,27,23)"/>
  <rect x="17" y="33" width="1" height="1" fill="rgb(235,27,23)"/>
  <rect x="18" y="33" width="1" height="1" fill="rgb(236,27,24)"/>
  <rect x="19" y="33" width="1" height="1" fill="rgb(235,27,24)"/>
  <rect x="20" y="33" width="1" height="1" fill="rgb(234,27,24)"/>
  <rect x="21" y="33" width="1" height="1" fill="rgb(235,28,24)"/>
  <rect x="22" y="33" width="1" height="1" fill="rgb(234,27,24)"/>
  <rect x="23" y="33" width="1" height="1" fill="rgb(234,27,23)"/>
  <rect x="24" y="33" width="1" height="1" fill="rgb(234,27,23)"/>
  <rect x="25" y="33" width="1" height="1" fill="rgb(234,28,23)"/>
  <rect x="26" y="33" width="1" height="1" fill="rgb(233,27,24)"/>
  <rect x="27" y="33" width="1" height="1" fill="rgb(234,27,24)"/>
  <rect x="28" y="33" width="1" height="1" fill="rgb(234,28,24)"/>
  <rect x="29" y="33" width="1" height="1" fill="rgb(233,27,22)"/>
  <rect x="30" y="33" width="1" height="1" fill="rgb(234,27,23)"/>
  <rect x="31" y="33" width="1" height="1" fill="rgb(236,27,22)"/>
  <rect x="32" y="33" width="1" height="1" fill="rgb(198,21,16)"/>
  <rect x="33" y="33" width="1" height="1" fill="rgb(200,19,18)"/>
  <rect x="34" y="33" width="1" height="1" fill="rgb(198,21,17)"/>
  <rect x="35" y="33" width="1" height="1" fill="rgb(199,21,17)"/>
  <rect x="36" y="33" width="1" height="1" fill="rgb(198,21,17)"/>
  <rect x="11" y="34" width="1" height="1" fill="rgb(230,72,70)"/>
  <rect x="12" y="34" width="1" height="1" fill="rgb(198,20,17)"/>
  <rect x="13" y="34" width="1" height="1" fill="rgb(198,21,17)"/>
  <rect x="14" y="34" width="1" height="1" fill="rgb(197,21,19)"/>
  <rect x="15" y="34" width="1" height="1" fill="rgb(198,20,17)"/>
  <rect x="16" y="34" width="1" height="1" fill="rgb(199,20,18)"/>
  <rect x="17" y="34" width="1" height="1" fill="rgb(200,20,19)"/>
  <rect x="18" y="34" width="1" height="1" fill="rgb(199,21,17)"/>
  <rect x="19" y="34" width="1" height="1" fill="rgb(200,20,17)"/>
  <rect x="20" y="34" width="1" height="1" fill="rgb(198,19,18)"/>
  <rect x="21" y="34" width="1" height="1" fill="rgb(196,20,18)"/>
  <rect x="22" y="34" width="1" height="1" fill="rgb(198,20,16)"/>
  <rect x="23" y="34" width="1" height="1" fill="rgb(198,19,18)"/>
  <rect x="24" y="34" width="1" height="1" fill="rgb(198,21,17)"/>
  <rect x="25" y="34" width="1" height="1" fill="rgb(196,20,18)"/>
  <rect x="26" y="34" width="1" height="1" fill="rgb(198,20,19)"/>
  <rect x="27" y="34" width="1" height="1" fill="rgb(198,21,17)"/>
  <rect x="28" y="34" width="1" height="1" fill="rgb(198,21,19)"/>
  <rect x="29" y="34" width="1" height="1" fill="rgb(198,20,17)"/>
  <rect x="30" y="34" width="1" height="1" fill="rgb(197,21,19)"/>
  <rect x="31" y="34" width="1" height="1" fill="rgb(195,18,16)"/>
  <rect x="32" y="34" width="1" height="1" fill="rgb(199,21,18)"/>
  <rect x="33" y="34" width="1" height="1" fill="rgb(198,20,17)"/>
  <rect x="34" y="34" width="1" height="1" fill="rgb(198,21,17)"/>
  <rect x="35" y="34" width="1" height="1" fill="rgb(198,21,17)"/>
  <rect x="36" y="34" width="1" height="1" fill="rgb(198,21,18)"/>
  <rect x="11" y="35" width="1" height="1" fill="rgb(228,71,71)"/>
  <rect x="12" y="35" width="1" height="1" fill="rgb(199,22,17)"/>
  <rect x="13" y="35" width="1" height="1" fill="rgb(198,21,17)"/>
  <rect x="14" y="35" width="1" height="1" fill="rgb(200,23,21)"/>
  <rect x="15" y="35" width="1" height="1" fill="rgb(199,21,17)"/>
  <rect x="16" y="35" width="1" height="1" fill="rgb(199,20,17)"/>
  <rect x="17" y="35" width="1" height="1" fill="rgb(197,20,15)"/>
  <rect x="18" y="35" width="1" height="1" fill="rgb(198,19,18)"/>
  <rect x="19" y="35" width="1" height="1" fill="rgb(199,19,16)"/>
  <rect x="20" y="35" width="1" height="1" fill="rgb(199,19,18)"/>
  <rect x="21" y="35" width="1" height="1" fill="rgb(198,20,16)"/>
  <rect x="22" y="35" width="1" height="1" fill="rgb(198,20,16)"/>
  <rect x="23" y="35" width="1" height="1" fill="rgb(197,20,18)"/>
  <rect x="24" y="35" width="1" height="1" fill="rgb(199,21,17)"/>
  <rect x="25" y="35" width="1" height="1" fill="rgb(198,20,16)"/>
  <rect x="26" y="35" width="1" height="1" fill="rgb(198,21,16)"/>
  <rect x="27" y="35" width="1" height="1" fill="rgb(197,21,16)"/>
  <rect x="28" y="35" width="1" height="1" fill="rgb(198,20,17)"/>
  <rect x="29" y="35" width="1" height="1" fill="rgb(198,20,15)"/>
  <rect x="30" y="35" width="1" height="1" fill="rgb(199,21,17)"/>
  <rect x="31" y="35" width="1" height="1" fill="rgb(197,18,17)"/>
  <rect x="32" y="35" width="1" height="1" fill="rgb(198,21,17)"/>
  <rect x="33" y="35" width="1" height="1" fill="rgb(197,20,16)"/>
  <rect x="34" y="35" width="1" height="1" fill="rgb(197,21,16)"/>
  <rect x="35" y="35" width="1" height="1" fill="rgb(199,21,18)"/>
  <rect x="36" y="35" width="1" height="1" fill="rgb(197,19,16)"/>
  <rect x="11" y="36" width="1" height="1" fill="rgb(228,72,71)"/>
  <rect x="12" y="36" width="1" height="1" fill="rgb(199,20,20)"/>
  <rect x="13" y="36" width="1" height="1" fill="rgb(198,21,17)"/>
  <rect x="14" y="36" width="1" height="1" fill="rgb(197,20,16)"/>
  <rect x="15" y="36" width="1" height="1" fill="rgb(198,20,16)"/>
  <rect x="16" y="36" width="1" height="1" fill="rgb(200,21,17)"/>
  <rect x="17" y="36" width="1" height="1" fill="rgb(200,21,17)"/>
  <rect x="18" y="36" width="1" height="1" fill="rgb(199,19,17)"/>
  <rect x="19" y="36" width="1" height="1" fill="rgb(198,21,16)"/>
  <rect x="20" y="36" width="1" height="1" fill="rgb(198,20,16)"/>
  <rect x="21" y="36" width="1" height="1" fill="rgb(197,19,16)"/>
  <rect x="22" y="36" width="1" height="1" fill="rgb(198,21,17)"/>
  <rect x="23" y="36" width="1" height="1" fill="rgb(196,21,16)"/>
  <rect x="24" y="36" width="1" height="1" fill="rgb(198,20,17)"/>
  <rect x="25" y="36" width="1" height="1" fill="rgb(197,20,16)"/>
  <rect x="26" y="36" width="1" height="1" fill="rgb(197,20,16)"/>
  <rect x="27" y="36" width="1" height="1" fill="rgb(198,21,18)"/>
  <rect x="28" y="36" width="1" height="1" fill="rgb(199,20,16)"/>
  <rect x="29" y="36" width="1" height="1" fill="rgb(197,21,17)"/>
  <rect x="30" y="36" width="1" height="1" fill="rgb(198,19,18)"/>
  <rect x="31" y="36" width="1" height="1" fill="rgb(198,20,17)"/>
  <rect x="32" y="36" width="1" height="1" fill="rgb(198,22,17)"/>
  <rect x="33" y="36" width="1" height="1" fill="rgb(199,20,16)"/>
  <rect x="34" y="36" width="1" height="1" fill="rgb(198,21,18)"/>
  <rect x="35" y="36" width="1" height="1" fill="rgb(198,21,17)"/>
  <rect x="36" y="36" width="1" height="1" fill="rgb(197,20,17)"/>
  <rect x="11" y="37" width="1" height="1" fill="rgb(229,77,70)"/>
  <rect x="12" y="37" width="1" height="1" fill="rgb(197,21,19)"/>
  <rect x="13" y="37" width="1" height="1" fill="rgb(198,22,17)"/>
  <rect x="14" y="37" width="1" height="1" fill="rgb(199,21,17)"/>
  <rect x="15" y="37" width="1" height="1" fill="rgb(198,21,16)"/>
  <rect x="16" y="37" width="1" height="1" fill="rgb(199,19,15)"/>
  <rect x="17" y="37" width="1" height="1" fill="rgb(198,19,16)"/>
  <rect x="18" y="37" width="1" height="1" fill="rgb(198,20,16)"/>
  <rect x="19" y="37" width="1" height="1" fill="rgb(198,21,17)"/>
  <rect x="20" y="37" width="1" height="1" fill="rgb(198,20,16)"/>
  <rect x="21" y="37" width="1" height="1" fill="rgb(198,20,18)"/>
  <rect x="22" y="37" width="1" height="1" fill="rgb(198,20,17)"/>
  <rect x="23" y="37" width="1" height="1" fill="rgb(198,20,16)"/>
  <rect x="24" y="37" width="1" height="1" fill="rgb(199,20,16)"/>
  <rect x="25" y="37" width="1" height="1" fill="rgb(198,18,19)"/>
  <rect x="26" y="37" width="1" height="1" fill="rgb(199,20,17)"/>
  <rect x="27" y="37" width="1" height="1" fill="rgb(198,21,20)"/>
  <rect x="28" y="37" width="1" height="1" fill="rgb(197,21,17)"/>
  <rect x="29" y="37" width="1" height="1" fill="rgb(199,22,18)"/>
  <rect x="30" y="37" width="1" height="1" fill="rgb(198,20,16)"/>
  <rect x="31" y="37" width="1" height="1" fill="rgb(198,21,17)"/>
  <rect x="32" y="37" width="1" height="1" fill="rgb(198,21,17)"/>
  <rect x="33" y="37" width="1" height="1" fill="rgb(198,20,17)"/>
  <rect x="34" y="37" width="1" height="1" fill="rgb(199,19,18)"/>
  <rect x="35" y="37" width="1" height="1" fill="rgb(197,19,18)"/>
  <rect x="36" y="37" width="1" height="1" fill="rgb(198,21,17)"/>
  <rect x="13" y="38" width="1" height="1" fill="rgb(197,22,16)"/>
  <rect x="14" y="38" width="1" height="1" fill="rgb(197,22,18)"/>
  <rect x="15" y="38" width="1" height="1" fill="rgb(198,21,16)"/>
  <rect x="16" y="38" width="1" height="1" fill="rgb(198,20,16)"/>
  <rect x="17" y="38" width="1" height="1" fill="rgb(198,20,16)"/>
  <rect x="18" y="38" width="1" height="1" fill="rgb(198,20,16)"/>
  <rect x="19" y="38" width="1" height="1" fill="rgb(196,20,16)"/>
  <rect x="20" y="38" width="1" height="1" fill="rgb(199,21,17)"/>
  <rect x="21" y="38" width="1" height="1" fill="rgb(198,21,17)"/>
  <rect x="22" y="38" width="1" height="1" fill="rgb(196,20,15)"/>
  <rect x="23" y="38" width="1" height="1" fill="rgb(198,20,16)"/>
  <rect x="24" y="38" width="1" height="1" fill="rgb(198,22,16)"/>
  <rect x="25" y="38" width="1" height="1" fill="rgb(198,21,17)"/>
  <rect x="26" y="38" width="1" height="1" fill="rgb(198,20,17)"/>
  <rect x="27" y="38" width="1" height="1" fill="rgb(199,22,17)"/>
  <rect x="28" y="38" width="1" height="1" fill="rgb(197,20,16)"/>
  <rect x="29" y="38" width="1" height="1" fill="rgb(198,20,16)"/>
  <rect x="30" y="38" width="1" height="1" fill="rgb(198,20,16)"/>
  <rect x="31" y="38" width="1" height="1" fill="rgb(197,21,17)"/>
  <rect x="32" y="38" width="1" height="1" fill="rgb(198,21,17)"/>
  <rect x="33" y="38" width="1" height="1" fill="rgb(198,20,16)"/>
  <rect x="34" y="38" width="1" height="1" fill="rgb(198,20,19)"/>
  <rect x="13" y="39" width="1" height="1" fill="rgb(180,175,174)" opacity="0.71"/>
  <rect x="14" y="39" width="1" height="1" fill="rgb(155,150,151)" opacity="0.61"/>
  <rect x="15" y="39" width="1" height="1" fill="rgb(158,152,153)" opacity="0.62"/>
  <rect x="16" y="39" width="1" height="1" fill="rgb(157,152,151)" opacity="0.62"/>
  <rect x="17" y="39" width="1" height="1" fill="rgb(148,143,144)" opacity="0.58"/>
  <rect x="18" y="39" width="1" height="1" fill="rgb(143,139,139)" opacity="0.56"/>
  <rect x="19" y="39" width="1" height="1" fill="rgb(140,136,135)" opacity="0.55"/>
  <rect x="20" y="39" width="1" height="1" fill="rgb(136,131,131)" opacity="0.53"/>
  <rect x="21" y="39" width="1" height="1" fill="rgb(129,126,126)" opacity="0.51"/>
  <rect x="27" y="39" width="1" height="1" fill="rgb(128,125,125)" opacity="0.51"/>
  <rect x="28" y="39" width="1" height="1" fill="rgb(130,125,125)" opacity="0.51"/>
  <rect x="29" y="39" width="1" height="1" fill="rgb(135,131,131)" opacity="0.53"/>
  <rect x="30" y="39" width="1" height="1" fill="rgb(139,135,134)" opacity="0.55"/>
  <rect x="31" y="39" width="1" height="1" fill="rgb(143,139,140)" opacity="0.56"/>
  <rect x="32" y="39" width="1" height="1" fill="rgb(148,143,142)" opacity="0.58"/>
  <rect x="33" y="39" width="1" height="1" fill="rgb(146,142,142)" opacity="0.58"/>
  <rect x="34" y="39" width="1" height="1" fill="rgb(155,150,151)" opacity="0.61"/>
</svg>