<svg width="644" height="680" viewBox="0 0 644 680" fill="none" xmlns="http://www.w3.org/2000/svg">
<circle cx="322.323" cy="319.323" r="267.323" fill="black"/>
<circle cx="322.323" cy="319.323" r="267.323" fill="black"/>
<path d="M235.002 377.586L325.557 391.081L414.898 498.106H300.292C264.236 498.111 235.002 467.245 235.002 429.176V377.586Z" fill="white"/>
<path d="M312.163 389.644H235.006V377.59L315.39 389.576C314.318 389.624 313.241 389.644 312.163 389.644Z" fill="white"/>
<path d="M414.893 498.115H300.292C267.017 498.115 239.558 471.839 235.518 437.853H312.168C317.095 437.854 322.017 437.57 326.915 437.005C335.657 435.989 344.282 434.064 352.666 431.258C354.333 430.698 355.971 430.111 357.606 429.484L358.072 430.043L414.893 498.115Z" fill="white"/>
<path style="mix-blend-mode:multiply" opacity="0.46" d="M357.601 429.484C343.031 435.038 327.655 437.869 312.163 437.851H235.513C235.171 434.973 235.001 432.076 235.002 429.176V389.644H312.16C313.231 389.644 314.315 389.623 315.383 389.576L325.547 391.084L357.601 429.484Z" fill="white"/>
<path d="M235.002 429.176C235.001 432.076 235.171 434.973 235.513 437.851H235.002V429.176Z" fill="white"/>
<path d="M312.163 235.419C336.105 235.419 355.53 256.226 355.074 281.612C354.627 306.423 334.944 326.054 311.443 326.054H235V374.265H312.157C360.874 374.265 400.733 332.177 400.733 280.737C400.733 229.298 360.874 187.21 312.157 187.21H235V235.419H312.163Z" fill="url(#paint0_linear_503_154)"/>
<path d="M446.397 280.737C446.397 306.896 439.657 331.415 427.905 352.473C404.547 394.33 361.409 422.475 312.169 422.475H235.012V374.265H312.169C333.921 374.265 353.899 365.875 369.369 352.001C371.223 350.352 373.012 348.607 374.727 346.794C388.301 332.447 397.528 313.52 400.049 292.452C400.511 288.566 400.742 284.654 400.743 280.737C400.753 266.129 397.491 251.724 391.223 238.701C381.243 217.922 364.122 201.54 343.32 193.229C333.367 189.242 322.809 187.203 312.163 187.212H235.006V139H312.163C348.589 139 381.672 154.398 405.879 179.358C430.864 205.106 446.397 241.041 446.397 280.737Z" fill="url(#paint1_linear_503_154)"/>
<path opacity="0.13" d="M427.905 352.445C430.681 306.25 414.86 268.685 391.223 238.701C377.253 220.973 360.541 205.879 343.32 193.229C291.444 155.073 235.002 139 235.002 139H312.16C386.179 139 446.393 202.58 446.393 280.737C446.393 306.896 439.654 331.415 427.902 352.473L427.905 352.445Z" fill="url(#paint2_linear_503_154)"/>
<path opacity="0.04" d="M446.397 280.737C446.397 306.896 439.657 331.415 427.905 352.473C404.547 394.33 361.409 422.475 312.169 422.475H235.012C235.012 422.475 317.962 416.429 369.373 352.001C382.116 336.013 392.932 316.432 400.045 292.453C409.012 262.253 412.117 225.094 405.88 179.371V179.358C430.864 205.106 446.397 241.041 446.397 280.737Z" fill="url(#paint3_linear_503_154)"/>
<path opacity="0.1" d="M414.893 498.115H376.758L326.908 437.005L352.659 431.258L358.065 430.043L414.893 498.115Z" fill="url(#paint4_linear_503_154)"/>
<defs>
<linearGradient id="paint0_linear_503_154" x1="467.476" y1="266.701" x2="242.729" y2="281.41" gradientUnits="userSpaceOnUse">
<stop stop-color="white"/>
<stop offset="1" stop-color="white"/>
</linearGradient>
<linearGradient id="paint1_linear_503_154" x1="437.721" y1="280.737" x2="247.785" y2="280.737" gradientUnits="userSpaceOnUse">
<stop stop-color="white"/>
<stop offset="1" stop-color="white"/>
</linearGradient>
<linearGradient id="paint2_linear_503_154" x1="489.131" y1="329.568" x2="253.563" y2="142.601" gradientUnits="userSpaceOnUse">
<stop stop-color="white" stop-opacity="0"/>
<stop offset="1" stop-color="white"/>
</linearGradient>
<linearGradient id="paint3_linear_503_154" x1="420.304" y1="389.282" x2="315.099" y2="305.783" gradientUnits="userSpaceOnUse">
<stop stop-color="white" stop-opacity="0"/>
<stop offset="1" stop-color="white"/>
</linearGradient>
<linearGradient id="paint4_linear_503_154" x1="420.698" y1="511.231" x2="331.964" y2="440.804" gradientUnits="userSpaceOnUse">
<stop stop-color="white" stop-opacity="0"/>
<stop offset="1" stop-color="white"/>
</linearGradient>
</defs>
</svg>
